%TF.GenerationSoftware,KiCad,Pcbnew,(6.0.7)*%
%TF.CreationDate,2023-09-18T08:45:16-03:00*%
%TF.ProjectId,Shield_Arduino_MAX6675,53686965-6c64-45f4-9172-6475696e6f5f,rev?*%
%TF.SameCoordinates,Original*%
%TF.FileFunction,Copper,L2,Bot*%
%TF.FilePolarity,Positive*%
%FSLAX46Y46*%
G04 Gerber Fmt 4.6, Leading zero omitted, Abs format (unit mm)*
G04 Created by KiCad (PCBNEW (6.0.7)) date 2023-09-18 08:45:16*
%MOMM*%
%LPD*%
G01*
G04 APERTURE LIST*
%TA.AperFunction,ComponentPad*%
%ADD10R,1.700000X1.700000*%
%TD*%
%TA.AperFunction,ComponentPad*%
%ADD11O,1.700000X1.700000*%
%TD*%
%TA.AperFunction,Conductor*%
%ADD12C,1.000000*%
%TD*%
G04 APERTURE END LIST*
D10*
%TO.P,J1,1,Pin_1*%
%TO.N,unconnected-(J1-Pad1)*%
X109702800Y-67437200D03*
D11*
%TO.P,J1,2,Pin_2*%
%TO.N,/IOREF*%
X109702800Y-69977200D03*
%TO.P,J1,3,Pin_3*%
%TO.N,/~{RESET}*%
X109702800Y-72517200D03*
%TO.P,J1,4,Pin_4*%
%TO.N,+3V3*%
X109702800Y-75057200D03*
%TO.P,J1,5,Pin_5*%
%TO.N,+5V*%
X109702800Y-77597200D03*
%TO.P,J1,6,Pin_6*%
%TO.N,GND*%
X109702800Y-80137200D03*
%TO.P,J1,7,Pin_7*%
X109702800Y-82677200D03*
%TO.P,J1,8,Pin_8*%
%TO.N,VCC*%
X109702800Y-85217200D03*
%TD*%
D10*
%TO.P,J3,1,Pin_1*%
%TO.N,/A0*%
X109702800Y-90297200D03*
D11*
%TO.P,J3,2,Pin_2*%
%TO.N,/A1*%
X109702800Y-92837200D03*
%TO.P,J3,3,Pin_3*%
%TO.N,/A2*%
X109702800Y-95377200D03*
%TO.P,J3,4,Pin_4*%
%TO.N,/A3*%
X109702800Y-97917200D03*
%TO.P,J3,5,Pin_5*%
%TO.N,/SDA{slash}A4*%
X109702800Y-100457200D03*
%TO.P,J3,6,Pin_6*%
%TO.N,/SCL{slash}A5*%
X109702800Y-102997200D03*
%TD*%
D10*
%TO.P,J2,1,Pin_1*%
%TO.N,unconnected-(J2-Pad1)*%
X157962800Y-58293200D03*
D11*
%TO.P,J2,2,Pin_2*%
%TO.N,unconnected-(J2-Pad2)*%
X157962800Y-60833200D03*
%TO.P,J2,3,Pin_3*%
%TO.N,unconnected-(J2-Pad3)*%
X157962800Y-63373200D03*
%TO.P,J2,4,Pin_4*%
%TO.N,GND*%
X157962800Y-65913200D03*
%TO.P,J2,5,Pin_5*%
%TO.N,/D13*%
X157962800Y-68453200D03*
%TO.P,J2,6,Pin_6*%
%TO.N,/D12*%
X157962800Y-70993200D03*
%TO.P,J2,7,Pin_7*%
%TO.N,unconnected-(J2-Pad7)*%
X157962800Y-73533200D03*
%TO.P,J2,8,Pin_8*%
%TO.N,unconnected-(J2-Pad8)*%
X157962800Y-76073200D03*
%TO.P,J2,9,Pin_9*%
%TO.N,unconnected-(J2-Pad9)*%
X157962800Y-78613200D03*
%TO.P,J2,10,Pin_10*%
%TO.N,unconnected-(J2-Pad10)*%
X157962800Y-81153200D03*
%TD*%
D10*
%TO.P,J4,1,Pin_1*%
%TO.N,unconnected-(J4-Pad1)*%
X157962800Y-85217200D03*
D11*
%TO.P,J4,2,Pin_2*%
%TO.N,unconnected-(J4-Pad2)*%
X157962800Y-87757200D03*
%TO.P,J4,3,Pin_3*%
%TO.N,/D5*%
X157962800Y-90297200D03*
%TO.P,J4,4,Pin_4*%
%TO.N,/D4*%
X157962800Y-92837200D03*
%TO.P,J4,5,Pin_5*%
%TO.N,/D3*%
X157962800Y-95377200D03*
%TO.P,J4,6,Pin_6*%
%TO.N,/D2*%
X157962800Y-97917200D03*
%TO.P,J4,7,Pin_7*%
%TO.N,/D1*%
X157962800Y-100457200D03*
%TO.P,J4,8,Pin_8*%
%TO.N,/D0*%
X157962800Y-102997200D03*
%TD*%
D10*
%TO.P,J5,1,Pin_1*%
%TO.N,/D12*%
X147553800Y-42145000D03*
D11*
%TO.P,J5,2,Pin_2*%
%TO.N,/D5*%
X150093800Y-42145000D03*
%TO.P,J5,3,Pin_3*%
%TO.N,/D13*%
X152633800Y-42145000D03*
%TO.P,J5,4,Pin_4*%
%TO.N,+3V3*%
X155173800Y-42145000D03*
%TO.P,J5,5,Pin_5*%
%TO.N,GND*%
X157713800Y-42145000D03*
%TD*%
D10*
%TO.P,J6,1,Pin_1*%
%TO.N,/A0*%
X120609800Y-112033400D03*
D11*
%TO.P,J6,2,Pin_2*%
%TO.N,/A1*%
X118069800Y-112033400D03*
%TO.P,J6,3,Pin_3*%
%TO.N,/A2*%
X115529800Y-112033400D03*
%TD*%
D10*
%TO.P,J8,1,Pin_1*%
%TO.N,/D0*%
X149118600Y-111931800D03*
D11*
%TO.P,J8,2,Pin_2*%
%TO.N,/D1*%
X146578600Y-111931800D03*
%TO.P,J8,3,Pin_3*%
%TO.N,/D2*%
X144038600Y-111931800D03*
%TO.P,J8,4,Pin_4*%
%TO.N,/D3*%
X141498600Y-111931800D03*
%TO.P,J8,5,Pin_5*%
%TO.N,/D4*%
X138958600Y-111931800D03*
%TD*%
D12*
%TO.N,/A0*%
X120609800Y-101204200D02*
X120609800Y-112033400D01*
X109702800Y-90297200D02*
X120609800Y-101204200D01*
%TO.N,/A1*%
X118069800Y-112033400D02*
X118069800Y-101204200D01*
X118069800Y-101204200D02*
X109702800Y-92837200D01*
%TO.N,/A2*%
X115529800Y-101204200D02*
X115529800Y-112033400D01*
X109702800Y-95377200D02*
X115529800Y-101204200D01*
%TO.N,+3V3*%
X138049200Y-37617600D02*
X116357600Y-59309200D01*
X116357600Y-68402400D02*
X109702800Y-75057200D01*
X155173800Y-42145000D02*
X150646400Y-37617600D01*
X150646400Y-37617600D02*
X138049200Y-37617600D01*
X116357600Y-59309200D02*
X116357600Y-68402400D01*
%TO.N,/D12*%
X156413400Y-70993200D02*
X149733200Y-64313000D01*
X157962800Y-70993200D02*
X156413400Y-70993200D01*
X147706200Y-42145000D02*
X147553800Y-42145000D01*
X149733200Y-44172000D02*
X147706200Y-42145000D01*
X149733200Y-64313000D02*
X149733200Y-44172000D01*
%TO.N,/D13*%
X152633800Y-63012600D02*
X152633800Y-42145000D01*
X152578000Y-63068400D02*
X152633800Y-63012600D01*
X157962800Y-68453200D02*
X152578000Y-63068400D01*
%TO.N,/D5*%
X157962800Y-90297200D02*
X145948600Y-78283000D01*
X143383200Y-40259200D02*
X144246800Y-39395600D01*
X145948600Y-45009000D02*
X143383200Y-42443600D01*
X150093800Y-40942919D02*
X150093800Y-42145000D01*
X144246800Y-39395600D02*
X148546481Y-39395600D01*
X143383200Y-42443600D02*
X143383200Y-40259200D01*
X145948600Y-78283000D02*
X145948600Y-45009000D01*
X148546481Y-39395600D02*
X150093800Y-40942919D01*
%TO.N,/D0*%
X149118600Y-111931800D02*
X149118600Y-108996600D01*
X155118000Y-102997200D02*
X157962800Y-102997200D01*
X149118600Y-108996600D02*
X155118000Y-102997200D01*
%TO.N,/D1*%
X154864000Y-100457200D02*
X157962800Y-100457200D01*
X146578600Y-108742600D02*
X154864000Y-100457200D01*
X146578600Y-111931800D02*
X146578600Y-108742600D01*
%TO.N,/D2*%
X154152800Y-97917200D02*
X157962800Y-97917200D01*
X144038600Y-111931800D02*
X144038600Y-108031400D01*
X144038600Y-108031400D02*
X154152800Y-97917200D01*
%TO.N,/D3*%
X141498600Y-107929800D02*
X154051200Y-95377200D01*
X141498600Y-111931800D02*
X141498600Y-107929800D01*
X154051200Y-95377200D02*
X157962800Y-95377200D01*
%TO.N,/D4*%
X138958600Y-107574200D02*
X153695600Y-92837200D01*
X153695600Y-92837200D02*
X157962800Y-92837200D01*
X138958600Y-111931800D02*
X138958600Y-107574200D01*
%TD*%
%TA.AperFunction,Conductor*%
%TO.N,GND*%
G36*
X161155621Y-36317302D02*
G01*
X161202114Y-36370958D01*
X161213500Y-36423300D01*
X161213500Y-116180300D01*
X161193498Y-116248421D01*
X161139842Y-116294914D01*
X161087500Y-116306300D01*
X107289300Y-116306300D01*
X107221179Y-116286298D01*
X107174686Y-116232642D01*
X107163300Y-116180300D01*
X107163300Y-102963895D01*
X108340051Y-102963895D01*
X108340348Y-102969048D01*
X108340348Y-102969051D01*
X108345811Y-103063790D01*
X108352910Y-103186915D01*
X108354047Y-103191961D01*
X108354048Y-103191967D01*
X108373919Y-103280139D01*
X108402022Y-103404839D01*
X108486066Y-103611816D01*
X108602787Y-103802288D01*
X108749050Y-103971138D01*
X108920926Y-104113832D01*
X109113800Y-104226538D01*
X109322492Y-104306230D01*
X109327560Y-104307261D01*
X109327563Y-104307262D01*
X109434817Y-104329083D01*
X109541397Y-104350767D01*
X109546572Y-104350957D01*
X109546574Y-104350957D01*
X109759473Y-104358764D01*
X109759477Y-104358764D01*
X109764637Y-104358953D01*
X109769757Y-104358297D01*
X109769759Y-104358297D01*
X109981088Y-104331225D01*
X109981089Y-104331225D01*
X109986216Y-104330568D01*
X109991166Y-104329083D01*
X110195229Y-104267861D01*
X110195234Y-104267859D01*
X110200184Y-104266374D01*
X110400794Y-104168096D01*
X110582660Y-104038373D01*
X110595376Y-104025702D01*
X110737235Y-103884337D01*
X110740896Y-103880689D01*
X110800394Y-103797889D01*
X110868235Y-103703477D01*
X110871253Y-103699277D01*
X110970230Y-103499011D01*
X111035170Y-103285269D01*
X111064329Y-103063790D01*
X111065956Y-102997200D01*
X111047652Y-102774561D01*
X110993231Y-102557902D01*
X110904154Y-102353040D01*
X110782814Y-102165477D01*
X110632470Y-102000251D01*
X110628419Y-101997052D01*
X110628415Y-101997048D01*
X110461214Y-101865000D01*
X110461210Y-101864998D01*
X110457159Y-101861798D01*
X110415853Y-101838996D01*
X110365884Y-101788564D01*
X110351112Y-101719121D01*
X110376228Y-101652716D01*
X110403580Y-101626109D01*
X110461172Y-101585029D01*
X110582660Y-101498373D01*
X110595376Y-101485702D01*
X110737235Y-101344337D01*
X110740896Y-101340689D01*
X110800394Y-101257889D01*
X110868235Y-101163477D01*
X110871253Y-101159277D01*
X110875164Y-101151365D01*
X110967936Y-100963653D01*
X110967937Y-100963651D01*
X110970230Y-100959011D01*
X111013317Y-100817194D01*
X111033665Y-100750223D01*
X111033665Y-100750221D01*
X111035170Y-100745269D01*
X111064329Y-100523790D01*
X111065956Y-100457200D01*
X111047652Y-100234561D01*
X110993231Y-100017902D01*
X110904154Y-99813040D01*
X110833573Y-99703938D01*
X110785622Y-99629817D01*
X110785620Y-99629814D01*
X110782814Y-99625477D01*
X110632470Y-99460251D01*
X110628419Y-99457052D01*
X110628415Y-99457048D01*
X110461214Y-99325000D01*
X110461210Y-99324998D01*
X110457159Y-99321798D01*
X110415853Y-99298996D01*
X110365884Y-99248564D01*
X110351112Y-99179121D01*
X110376228Y-99112716D01*
X110403580Y-99086109D01*
X110447403Y-99054850D01*
X110582660Y-98958373D01*
X110595376Y-98945702D01*
X110737235Y-98804337D01*
X110740896Y-98800689D01*
X110800394Y-98717889D01*
X110868235Y-98623477D01*
X110871253Y-98619277D01*
X110970230Y-98419011D01*
X110990277Y-98353027D01*
X111029216Y-98293667D01*
X111094070Y-98264779D01*
X111164246Y-98275540D01*
X111199929Y-98300564D01*
X114484395Y-101585029D01*
X114518421Y-101647341D01*
X114521300Y-101674124D01*
X114521300Y-111071781D01*
X114501298Y-111139902D01*
X114486394Y-111158832D01*
X114470429Y-111175538D01*
X114344543Y-111360080D01*
X114250488Y-111562705D01*
X114190789Y-111777970D01*
X114167051Y-112000095D01*
X114179910Y-112223115D01*
X114181047Y-112228161D01*
X114181048Y-112228167D01*
X114204989Y-112334396D01*
X114229022Y-112441039D01*
X114261523Y-112521080D01*
X114296389Y-112606944D01*
X114313066Y-112648016D01*
X114350485Y-112709078D01*
X114427091Y-112834088D01*
X114429787Y-112838488D01*
X114576050Y-113007338D01*
X114747926Y-113150032D01*
X114940800Y-113262738D01*
X114945625Y-113264580D01*
X114945626Y-113264581D01*
X114995288Y-113283545D01*
X115149492Y-113342430D01*
X115154560Y-113343461D01*
X115154563Y-113343462D01*
X115261817Y-113365283D01*
X115368397Y-113386967D01*
X115373572Y-113387157D01*
X115373574Y-113387157D01*
X115586473Y-113394964D01*
X115586477Y-113394964D01*
X115591637Y-113395153D01*
X115596757Y-113394497D01*
X115596759Y-113394497D01*
X115808088Y-113367425D01*
X115808089Y-113367425D01*
X115813216Y-113366768D01*
X115818166Y-113365283D01*
X116022229Y-113304061D01*
X116022234Y-113304059D01*
X116027184Y-113302574D01*
X116227794Y-113204296D01*
X116409660Y-113074573D01*
X116433274Y-113051042D01*
X116515272Y-112969329D01*
X116567896Y-112916889D01*
X116580381Y-112899515D01*
X116698253Y-112735477D01*
X116699576Y-112736428D01*
X116746445Y-112693257D01*
X116816380Y-112681025D01*
X116881826Y-112708544D01*
X116909675Y-112740394D01*
X116969787Y-112838488D01*
X117116050Y-113007338D01*
X117287926Y-113150032D01*
X117480800Y-113262738D01*
X117485625Y-113264580D01*
X117485626Y-113264581D01*
X117535288Y-113283545D01*
X117689492Y-113342430D01*
X117694560Y-113343461D01*
X117694563Y-113343462D01*
X117801817Y-113365283D01*
X117908397Y-113386967D01*
X117913572Y-113387157D01*
X117913574Y-113387157D01*
X118126473Y-113394964D01*
X118126477Y-113394964D01*
X118131637Y-113395153D01*
X118136757Y-113394497D01*
X118136759Y-113394497D01*
X118348088Y-113367425D01*
X118348089Y-113367425D01*
X118353216Y-113366768D01*
X118358166Y-113365283D01*
X118562229Y-113304061D01*
X118562234Y-113304059D01*
X118567184Y-113302574D01*
X118767794Y-113204296D01*
X118949660Y-113074573D01*
X119057891Y-112966719D01*
X119120262Y-112932804D01*
X119191068Y-112937992D01*
X119247830Y-112980638D01*
X119264812Y-113011741D01*
X119287001Y-113070929D01*
X119309185Y-113130105D01*
X119396539Y-113246661D01*
X119513095Y-113334015D01*
X119649484Y-113385145D01*
X119711666Y-113391900D01*
X121507934Y-113391900D01*
X121570116Y-113385145D01*
X121706505Y-113334015D01*
X121823061Y-113246661D01*
X121910415Y-113130105D01*
X121961545Y-112993716D01*
X121968300Y-112931534D01*
X121968300Y-111135266D01*
X121961545Y-111073084D01*
X121910415Y-110936695D01*
X121823061Y-110820139D01*
X121706505Y-110732785D01*
X121698096Y-110729633D01*
X121690225Y-110725323D01*
X121691136Y-110723659D01*
X121643310Y-110687737D01*
X121618607Y-110621176D01*
X121618300Y-110612391D01*
X121618300Y-101266042D01*
X121619037Y-101252435D01*
X121622459Y-101220937D01*
X121622459Y-101220932D01*
X121623124Y-101214811D01*
X121618750Y-101164809D01*
X121618421Y-101159984D01*
X121618300Y-101157513D01*
X121618300Y-101154431D01*
X121614109Y-101111689D01*
X121613987Y-101110374D01*
X121606423Y-101023919D01*
X121605887Y-101017787D01*
X121604400Y-101012668D01*
X121603880Y-101007367D01*
X121577018Y-100918394D01*
X121576662Y-100917194D01*
X121562842Y-100869625D01*
X121550709Y-100827863D01*
X121548255Y-100823129D01*
X121546716Y-100818031D01*
X121503116Y-100736031D01*
X121502502Y-100734863D01*
X121462526Y-100657741D01*
X121462525Y-100657740D01*
X121459692Y-100652274D01*
X121456369Y-100648111D01*
X121453866Y-100643404D01*
X121395045Y-100571282D01*
X121394354Y-100570426D01*
X121363062Y-100531227D01*
X121360558Y-100528723D01*
X121359916Y-100528005D01*
X121356215Y-100523672D01*
X121328865Y-100490138D01*
X121293537Y-100460912D01*
X121284758Y-100452923D01*
X116205681Y-95373846D01*
X111098205Y-90266371D01*
X111064179Y-90204059D01*
X111061300Y-90177276D01*
X111061300Y-89399066D01*
X111054545Y-89336884D01*
X111003415Y-89200495D01*
X110916061Y-89083939D01*
X110799505Y-88996585D01*
X110663116Y-88945455D01*
X110600934Y-88938700D01*
X108804666Y-88938700D01*
X108742484Y-88945455D01*
X108606095Y-88996585D01*
X108489539Y-89083939D01*
X108402185Y-89200495D01*
X108351055Y-89336884D01*
X108344300Y-89399066D01*
X108344300Y-91195334D01*
X108351055Y-91257516D01*
X108402185Y-91393905D01*
X108489539Y-91510461D01*
X108606095Y-91597815D01*
X108614504Y-91600967D01*
X108614505Y-91600968D01*
X108723251Y-91641735D01*
X108780016Y-91684376D01*
X108804716Y-91750938D01*
X108789509Y-91820287D01*
X108770116Y-91846768D01*
X108720446Y-91898745D01*
X108643429Y-91979338D01*
X108640515Y-91983610D01*
X108640514Y-91983611D01*
X108631360Y-91997030D01*
X108517543Y-92163880D01*
X108423488Y-92366505D01*
X108363789Y-92581770D01*
X108340051Y-92803895D01*
X108340348Y-92809048D01*
X108340348Y-92809051D01*
X108345811Y-92903790D01*
X108352910Y-93026915D01*
X108354047Y-93031961D01*
X108354048Y-93031967D01*
X108373919Y-93120139D01*
X108402022Y-93244839D01*
X108486066Y-93451816D01*
X108602787Y-93642288D01*
X108749050Y-93811138D01*
X108920926Y-93953832D01*
X108991395Y-93995011D01*
X108994245Y-93996676D01*
X109042969Y-94048314D01*
X109056040Y-94118097D01*
X109029309Y-94183869D01*
X108988855Y-94217227D01*
X108976407Y-94223707D01*
X108972274Y-94226810D01*
X108972271Y-94226812D01*
X108801900Y-94354730D01*
X108797765Y-94357835D01*
X108643429Y-94519338D01*
X108517543Y-94703880D01*
X108423488Y-94906505D01*
X108363789Y-95121770D01*
X108340051Y-95343895D01*
X108340348Y-95349048D01*
X108340348Y-95349051D01*
X108345811Y-95443790D01*
X108352910Y-95566915D01*
X108354047Y-95571961D01*
X108354048Y-95571967D01*
X108373919Y-95660139D01*
X108402022Y-95784839D01*
X108486066Y-95991816D01*
X108602787Y-96182288D01*
X108749050Y-96351138D01*
X108920926Y-96493832D01*
X108991395Y-96535011D01*
X108994245Y-96536676D01*
X109042969Y-96588314D01*
X109056040Y-96658097D01*
X109029309Y-96723869D01*
X108988855Y-96757227D01*
X108976407Y-96763707D01*
X108972274Y-96766810D01*
X108972271Y-96766812D01*
X108809934Y-96888698D01*
X108797765Y-96897835D01*
X108643429Y-97059338D01*
X108517543Y-97243880D01*
X108423488Y-97446505D01*
X108363789Y-97661770D01*
X108340051Y-97883895D01*
X108340348Y-97889048D01*
X108340348Y-97889051D01*
X108345811Y-97983790D01*
X108352910Y-98106915D01*
X108354047Y-98111961D01*
X108354048Y-98111967D01*
X108361242Y-98143886D01*
X108402022Y-98324839D01*
X108486066Y-98531816D01*
X108602787Y-98722288D01*
X108749050Y-98891138D01*
X108920926Y-99033832D01*
X108991395Y-99075011D01*
X108994245Y-99076676D01*
X109042969Y-99128314D01*
X109056040Y-99198097D01*
X109029309Y-99263869D01*
X108988855Y-99297227D01*
X108976407Y-99303707D01*
X108972274Y-99306810D01*
X108972271Y-99306812D01*
X108801900Y-99434730D01*
X108797765Y-99437835D01*
X108643429Y-99599338D01*
X108640515Y-99603610D01*
X108640514Y-99603611D01*
X108631360Y-99617030D01*
X108517543Y-99783880D01*
X108423488Y-99986505D01*
X108363789Y-100201770D01*
X108340051Y-100423895D01*
X108340348Y-100429048D01*
X108340348Y-100429051D01*
X108348493Y-100570316D01*
X108352910Y-100646915D01*
X108354047Y-100651961D01*
X108354048Y-100651967D01*
X108372730Y-100734863D01*
X108402022Y-100864839D01*
X108486066Y-101071816D01*
X108602787Y-101262288D01*
X108749050Y-101431138D01*
X108920926Y-101573832D01*
X108991395Y-101615011D01*
X108994245Y-101616676D01*
X109042969Y-101668314D01*
X109056040Y-101738097D01*
X109029309Y-101803869D01*
X108988855Y-101837227D01*
X108976407Y-101843707D01*
X108972274Y-101846810D01*
X108972271Y-101846812D01*
X108805299Y-101972178D01*
X108797765Y-101977835D01*
X108643429Y-102139338D01*
X108517543Y-102323880D01*
X108423488Y-102526505D01*
X108363789Y-102741770D01*
X108340051Y-102963895D01*
X107163300Y-102963895D01*
X107163300Y-85183895D01*
X108340051Y-85183895D01*
X108340348Y-85189048D01*
X108340348Y-85189051D01*
X108345811Y-85283790D01*
X108352910Y-85406915D01*
X108354047Y-85411961D01*
X108354048Y-85411967D01*
X108373919Y-85500139D01*
X108402022Y-85624839D01*
X108486066Y-85831816D01*
X108602787Y-86022288D01*
X108749050Y-86191138D01*
X108920926Y-86333832D01*
X109113800Y-86446538D01*
X109322492Y-86526230D01*
X109327560Y-86527261D01*
X109327563Y-86527262D01*
X109434817Y-86549083D01*
X109541397Y-86570767D01*
X109546572Y-86570957D01*
X109546574Y-86570957D01*
X109759473Y-86578764D01*
X109759477Y-86578764D01*
X109764637Y-86578953D01*
X109769757Y-86578297D01*
X109769759Y-86578297D01*
X109981088Y-86551225D01*
X109981089Y-86551225D01*
X109986216Y-86550568D01*
X109991166Y-86549083D01*
X110195229Y-86487861D01*
X110195234Y-86487859D01*
X110200184Y-86486374D01*
X110400794Y-86388096D01*
X110582660Y-86258373D01*
X110740896Y-86100689D01*
X110800394Y-86017889D01*
X110868235Y-85923477D01*
X110871253Y-85919277D01*
X110970230Y-85719011D01*
X111035170Y-85505269D01*
X111064329Y-85283790D01*
X111065956Y-85217200D01*
X111047652Y-84994561D01*
X110993231Y-84777902D01*
X110904154Y-84573040D01*
X110782814Y-84385477D01*
X110632470Y-84220251D01*
X110628419Y-84217052D01*
X110628415Y-84217048D01*
X110461214Y-84085000D01*
X110461210Y-84084998D01*
X110457159Y-84081798D01*
X110415369Y-84058729D01*
X110365398Y-84008297D01*
X110350626Y-83938854D01*
X110375742Y-83872448D01*
X110403094Y-83845841D01*
X110578128Y-83720992D01*
X110586000Y-83714339D01*
X110736852Y-83564012D01*
X110743530Y-83556165D01*
X110867803Y-83383220D01*
X110873113Y-83374383D01*
X110967470Y-83183467D01*
X110971269Y-83173872D01*
X111033177Y-82970110D01*
X111035355Y-82960037D01*
X111036786Y-82949162D01*
X111034575Y-82934978D01*
X111021417Y-82931200D01*
X108386025Y-82931200D01*
X108372494Y-82935173D01*
X108371057Y-82945166D01*
X108401365Y-83079646D01*
X108404445Y-83089475D01*
X108484570Y-83286803D01*
X108489213Y-83295994D01*
X108600494Y-83477588D01*
X108606577Y-83485899D01*
X108746013Y-83646867D01*
X108753380Y-83654083D01*
X108917234Y-83790116D01*
X108925681Y-83796031D01*
X108994769Y-83836403D01*
X109043493Y-83888042D01*
X109056564Y-83957825D01*
X109029833Y-84023596D01*
X108989384Y-84056952D01*
X108976407Y-84063707D01*
X108972274Y-84066810D01*
X108972271Y-84066812D01*
X108801900Y-84194730D01*
X108797765Y-84197835D01*
X108643429Y-84359338D01*
X108517543Y-84543880D01*
X108423488Y-84746505D01*
X108363789Y-84961770D01*
X108340051Y-85183895D01*
X107163300Y-85183895D01*
X107163300Y-82411383D01*
X108367189Y-82411383D01*
X108368712Y-82419807D01*
X108381092Y-82423200D01*
X109430685Y-82423200D01*
X109445924Y-82418725D01*
X109447129Y-82417335D01*
X109448800Y-82409652D01*
X109448800Y-82405085D01*
X109956800Y-82405085D01*
X109961275Y-82420324D01*
X109962665Y-82421529D01*
X109970348Y-82423200D01*
X111021144Y-82423200D01*
X111034675Y-82419227D01*
X111035980Y-82410147D01*
X110994014Y-82243075D01*
X110990694Y-82233324D01*
X110905772Y-82038014D01*
X110900905Y-82028939D01*
X110785226Y-81850126D01*
X110778936Y-81841957D01*
X110635606Y-81684440D01*
X110628073Y-81677415D01*
X110460939Y-81545422D01*
X110452352Y-81539717D01*
X110414916Y-81519051D01*
X110364946Y-81468619D01*
X110350174Y-81399176D01*
X110375290Y-81332771D01*
X110402642Y-81306164D01*
X110578127Y-81180992D01*
X110586000Y-81174339D01*
X110736852Y-81024012D01*
X110743530Y-81016165D01*
X110867803Y-80843220D01*
X110873113Y-80834383D01*
X110967470Y-80643467D01*
X110971269Y-80633872D01*
X111033177Y-80430110D01*
X111035355Y-80420037D01*
X111036786Y-80409162D01*
X111034575Y-80394978D01*
X111021417Y-80391200D01*
X109974915Y-80391200D01*
X109959676Y-80395675D01*
X109958471Y-80397065D01*
X109956800Y-80404748D01*
X109956800Y-82405085D01*
X109448800Y-82405085D01*
X109448800Y-80409315D01*
X109444325Y-80394076D01*
X109442935Y-80392871D01*
X109435252Y-80391200D01*
X108386025Y-80391200D01*
X108372494Y-80395173D01*
X108371057Y-80405166D01*
X108401365Y-80539646D01*
X108404445Y-80549475D01*
X108484570Y-80746803D01*
X108489213Y-80755994D01*
X108600494Y-80937588D01*
X108606577Y-80945899D01*
X108746013Y-81106867D01*
X108753380Y-81114083D01*
X108917234Y-81250116D01*
X108925681Y-81256031D01*
X108995279Y-81296701D01*
X109044003Y-81348340D01*
X109057074Y-81418123D01*
X109030343Y-81483894D01*
X108989887Y-81517253D01*
X108981262Y-81521742D01*
X108972538Y-81527236D01*
X108802233Y-81655105D01*
X108794526Y-81661948D01*
X108647390Y-81815917D01*
X108640904Y-81823927D01*
X108520898Y-81999849D01*
X108515800Y-82008823D01*
X108426138Y-82201983D01*
X108422575Y-82211670D01*
X108367189Y-82411383D01*
X107163300Y-82411383D01*
X107163300Y-77563895D01*
X108340051Y-77563895D01*
X108340348Y-77569048D01*
X108340348Y-77569051D01*
X108345811Y-77663790D01*
X108352910Y-77786915D01*
X108354047Y-77791961D01*
X108354048Y-77791967D01*
X108370567Y-77865266D01*
X108402022Y-78004839D01*
X108486066Y-78211816D01*
X108526944Y-78278523D01*
X108595601Y-78390561D01*
X108602787Y-78402288D01*
X108749050Y-78571138D01*
X108920926Y-78713832D01*
X108984977Y-78751260D01*
X108994755Y-78756974D01*
X109043479Y-78808612D01*
X109056550Y-78878395D01*
X109029819Y-78944167D01*
X108989362Y-78977527D01*
X108981257Y-78981746D01*
X108972538Y-78987236D01*
X108802233Y-79115105D01*
X108794526Y-79121948D01*
X108647390Y-79275917D01*
X108640904Y-79283927D01*
X108520898Y-79459849D01*
X108515800Y-79468823D01*
X108426138Y-79661983D01*
X108422575Y-79671670D01*
X108367189Y-79871383D01*
X108368712Y-79879807D01*
X108381092Y-79883200D01*
X111021144Y-79883200D01*
X111034675Y-79879227D01*
X111035980Y-79870147D01*
X110994014Y-79703075D01*
X110990694Y-79693324D01*
X110905772Y-79498014D01*
X110900905Y-79488939D01*
X110785226Y-79310126D01*
X110778936Y-79301957D01*
X110635606Y-79144440D01*
X110628073Y-79137415D01*
X110460939Y-79005422D01*
X110452356Y-78999720D01*
X110415402Y-78979320D01*
X110365431Y-78928887D01*
X110350659Y-78859445D01*
X110375775Y-78793039D01*
X110403127Y-78766432D01*
X110426597Y-78749691D01*
X110582660Y-78638373D01*
X110604545Y-78616565D01*
X110737235Y-78484337D01*
X110740896Y-78480689D01*
X110800394Y-78397889D01*
X110868235Y-78303477D01*
X110871253Y-78299277D01*
X110884543Y-78272388D01*
X110967936Y-78103653D01*
X110967937Y-78103651D01*
X110970230Y-78099011D01*
X111035170Y-77885269D01*
X111064329Y-77663790D01*
X111065956Y-77597200D01*
X111047652Y-77374561D01*
X110993231Y-77157902D01*
X110904154Y-76953040D01*
X110782814Y-76765477D01*
X110632470Y-76600251D01*
X110628419Y-76597052D01*
X110628415Y-76597048D01*
X110461214Y-76465000D01*
X110461210Y-76464998D01*
X110457159Y-76461798D01*
X110415853Y-76438996D01*
X110365884Y-76388564D01*
X110351112Y-76319121D01*
X110376228Y-76252716D01*
X110403580Y-76226109D01*
X110447403Y-76194850D01*
X110582660Y-76098373D01*
X110604545Y-76076565D01*
X110737235Y-75944337D01*
X110740896Y-75940689D01*
X110800394Y-75857889D01*
X110868235Y-75763477D01*
X110871253Y-75759277D01*
X110935564Y-75629154D01*
X110967936Y-75563653D01*
X110967937Y-75563651D01*
X110970230Y-75559011D01*
X111035170Y-75345269D01*
X111059032Y-75164024D01*
X111087755Y-75099097D01*
X111094859Y-75091376D01*
X117026979Y-69159255D01*
X117037122Y-69150153D01*
X117061818Y-69130297D01*
X117066625Y-69126432D01*
X117098920Y-69087944D01*
X117102078Y-69084325D01*
X117103724Y-69082510D01*
X117105909Y-69080325D01*
X117107864Y-69077945D01*
X117107873Y-69077935D01*
X117133149Y-69047164D01*
X117133991Y-69046149D01*
X117189794Y-68979645D01*
X117193754Y-68974926D01*
X117196323Y-68970252D01*
X117199702Y-68966139D01*
X117243575Y-68884315D01*
X117244184Y-68883193D01*
X117286064Y-68807014D01*
X117286065Y-68807012D01*
X117289033Y-68801613D01*
X117290645Y-68796531D01*
X117293162Y-68791837D01*
X117320362Y-68702869D01*
X117320708Y-68701758D01*
X117346973Y-68618963D01*
X117348835Y-68613094D01*
X117349429Y-68607798D01*
X117350987Y-68602702D01*
X117360390Y-68510143D01*
X117360511Y-68509007D01*
X117366100Y-68459173D01*
X117366100Y-68455646D01*
X117366155Y-68454661D01*
X117366602Y-68448981D01*
X117370974Y-68405938D01*
X117366659Y-68360291D01*
X117366100Y-68348433D01*
X117366100Y-59779125D01*
X117386102Y-59711004D01*
X117403005Y-59690030D01*
X138430029Y-38663005D01*
X138492341Y-38628979D01*
X138519124Y-38626100D01*
X143285876Y-38626100D01*
X143353997Y-38646102D01*
X143400490Y-38699758D01*
X143410594Y-38770032D01*
X143381100Y-38834612D01*
X143374971Y-38841195D01*
X142713821Y-39502345D01*
X142703678Y-39511447D01*
X142674175Y-39535168D01*
X142670208Y-39539896D01*
X142641909Y-39573621D01*
X142638728Y-39577269D01*
X142637085Y-39579081D01*
X142634891Y-39581275D01*
X142607558Y-39614549D01*
X142606896Y-39615347D01*
X142547046Y-39686674D01*
X142544478Y-39691344D01*
X142541097Y-39695461D01*
X142510060Y-39753345D01*
X142497223Y-39777286D01*
X142496594Y-39778445D01*
X142454738Y-39854581D01*
X142454735Y-39854589D01*
X142451767Y-39859987D01*
X142450155Y-39865069D01*
X142447638Y-39869763D01*
X142420438Y-39958731D01*
X142420118Y-39959759D01*
X142391965Y-40048506D01*
X142391371Y-40053802D01*
X142389813Y-40058898D01*
X142389190Y-40065034D01*
X142380418Y-40151387D01*
X142380289Y-40152593D01*
X142374700Y-40202427D01*
X142374700Y-40205954D01*
X142374645Y-40206939D01*
X142374198Y-40212619D01*
X142369826Y-40255662D01*
X142373823Y-40297941D01*
X142374141Y-40301309D01*
X142374700Y-40313167D01*
X142374700Y-42381757D01*
X142373963Y-42395364D01*
X142369876Y-42432988D01*
X142370413Y-42439123D01*
X142374250Y-42482988D01*
X142374579Y-42487814D01*
X142374700Y-42490286D01*
X142374700Y-42493369D01*
X142375001Y-42496437D01*
X142378890Y-42536106D01*
X142379012Y-42537419D01*
X142387113Y-42630013D01*
X142388600Y-42635132D01*
X142389120Y-42640433D01*
X142415991Y-42729434D01*
X142416326Y-42730567D01*
X142434217Y-42792145D01*
X142442291Y-42819936D01*
X142444744Y-42824668D01*
X142446284Y-42829769D01*
X142449178Y-42835212D01*
X142489931Y-42911860D01*
X142490543Y-42913026D01*
X142511777Y-42953990D01*
X142533308Y-42995526D01*
X142536631Y-42999689D01*
X142539134Y-43004396D01*
X142597955Y-43076518D01*
X142598646Y-43077374D01*
X142629938Y-43116573D01*
X142632442Y-43119077D01*
X142633084Y-43119795D01*
X142636785Y-43124128D01*
X142664135Y-43157662D01*
X142668882Y-43161589D01*
X142668884Y-43161591D01*
X142699462Y-43186887D01*
X142708242Y-43194877D01*
X144903195Y-45389830D01*
X144937221Y-45452142D01*
X144940100Y-45478925D01*
X144940100Y-78221157D01*
X144939363Y-78234764D01*
X144935276Y-78272388D01*
X144935813Y-78278523D01*
X144939650Y-78322388D01*
X144939979Y-78327214D01*
X144940100Y-78329686D01*
X144940100Y-78332769D01*
X144940401Y-78335837D01*
X144944290Y-78375506D01*
X144944412Y-78376819D01*
X144946982Y-78406190D01*
X144952513Y-78469413D01*
X144954000Y-78474532D01*
X144954520Y-78479833D01*
X144981391Y-78568834D01*
X144981726Y-78569967D01*
X145002472Y-78641371D01*
X145007691Y-78659336D01*
X145010144Y-78664068D01*
X145011684Y-78669169D01*
X145014578Y-78674612D01*
X145055331Y-78751260D01*
X145055943Y-78752426D01*
X145085068Y-78808612D01*
X145098708Y-78834926D01*
X145102031Y-78839089D01*
X145104534Y-78843796D01*
X145163355Y-78915918D01*
X145164046Y-78916774D01*
X145195338Y-78955973D01*
X145197842Y-78958477D01*
X145198484Y-78959195D01*
X145202185Y-78963528D01*
X145229535Y-78997062D01*
X145234282Y-79000989D01*
X145234284Y-79000991D01*
X145264862Y-79026287D01*
X145273642Y-79034277D01*
X156572039Y-90332673D01*
X156606065Y-90394985D01*
X156608735Y-90414514D01*
X156612910Y-90486915D01*
X156614047Y-90491961D01*
X156614048Y-90491967D01*
X156633919Y-90580139D01*
X156662022Y-90704839D01*
X156746066Y-90911816D01*
X156862787Y-91102288D01*
X157009050Y-91271138D01*
X157180926Y-91413832D01*
X157251395Y-91455011D01*
X157254245Y-91456676D01*
X157302969Y-91508314D01*
X157316040Y-91578097D01*
X157289309Y-91643869D01*
X157248855Y-91677227D01*
X157236407Y-91683707D01*
X157232274Y-91686810D01*
X157232271Y-91686812D01*
X157076911Y-91803460D01*
X157010426Y-91828366D01*
X157001258Y-91828700D01*
X153757442Y-91828700D01*
X153743835Y-91827963D01*
X153712337Y-91824541D01*
X153712332Y-91824541D01*
X153706211Y-91823876D01*
X153688211Y-91825451D01*
X153656209Y-91828250D01*
X153651384Y-91828579D01*
X153648913Y-91828700D01*
X153645831Y-91828700D01*
X153623363Y-91830903D01*
X153603089Y-91832891D01*
X153601774Y-91833013D01*
X153569513Y-91835836D01*
X153509187Y-91841113D01*
X153504068Y-91842600D01*
X153498767Y-91843120D01*
X153409794Y-91869982D01*
X153408654Y-91870320D01*
X153319263Y-91896291D01*
X153314529Y-91898745D01*
X153309431Y-91900284D01*
X153303987Y-91903178D01*
X153303986Y-91903179D01*
X153227431Y-91943884D01*
X153226263Y-91944498D01*
X153159050Y-91979338D01*
X153143674Y-91987308D01*
X153139511Y-91990631D01*
X153134804Y-91993134D01*
X153062682Y-92051955D01*
X153061826Y-92052646D01*
X153022627Y-92083938D01*
X153020123Y-92086442D01*
X153019405Y-92087084D01*
X153015072Y-92090785D01*
X152981538Y-92118135D01*
X152977611Y-92122882D01*
X152977609Y-92122884D01*
X152952313Y-92153462D01*
X152944323Y-92162242D01*
X145616614Y-99489952D01*
X138289221Y-106817345D01*
X138279078Y-106826447D01*
X138249575Y-106850168D01*
X138245608Y-106854896D01*
X138217309Y-106888621D01*
X138214128Y-106892269D01*
X138212485Y-106894081D01*
X138210291Y-106896275D01*
X138182958Y-106929549D01*
X138182296Y-106930347D01*
X138122446Y-107001674D01*
X138119878Y-107006344D01*
X138116497Y-107010461D01*
X138085460Y-107068345D01*
X138072623Y-107092286D01*
X138071994Y-107093445D01*
X138030138Y-107169581D01*
X138030135Y-107169589D01*
X138027167Y-107174987D01*
X138025555Y-107180069D01*
X138023038Y-107184763D01*
X137995838Y-107273731D01*
X137995518Y-107274759D01*
X137967365Y-107363506D01*
X137966771Y-107368802D01*
X137965213Y-107373898D01*
X137964590Y-107380034D01*
X137955818Y-107466387D01*
X137955689Y-107467593D01*
X137950100Y-107517427D01*
X137950100Y-107520954D01*
X137950045Y-107521939D01*
X137949598Y-107527619D01*
X137945226Y-107570662D01*
X137945806Y-107576793D01*
X137949541Y-107616309D01*
X137950100Y-107628167D01*
X137950100Y-110970181D01*
X137930098Y-111038302D01*
X137915194Y-111057232D01*
X137899229Y-111073938D01*
X137773343Y-111258480D01*
X137679288Y-111461105D01*
X137619589Y-111676370D01*
X137595851Y-111898495D01*
X137608710Y-112121515D01*
X137609847Y-112126561D01*
X137609848Y-112126567D01*
X137630442Y-112217947D01*
X137657822Y-112339439D01*
X137741866Y-112546416D01*
X137779285Y-112607478D01*
X137855891Y-112732488D01*
X137858587Y-112736888D01*
X138004850Y-112905738D01*
X138176726Y-113048432D01*
X138369600Y-113161138D01*
X138578292Y-113240830D01*
X138583360Y-113241861D01*
X138583363Y-113241862D01*
X138633400Y-113252042D01*
X138797197Y-113285367D01*
X138802372Y-113285557D01*
X138802374Y-113285557D01*
X139015273Y-113293364D01*
X139015277Y-113293364D01*
X139020437Y-113293553D01*
X139025557Y-113292897D01*
X139025559Y-113292897D01*
X139236888Y-113265825D01*
X139236889Y-113265825D01*
X139242016Y-113265168D01*
X139303703Y-113246661D01*
X139451029Y-113202461D01*
X139451034Y-113202459D01*
X139455984Y-113200974D01*
X139656594Y-113102696D01*
X139838460Y-112972973D01*
X139873564Y-112937992D01*
X139932724Y-112879038D01*
X139996696Y-112815289D01*
X140054047Y-112735477D01*
X140127053Y-112633877D01*
X140128376Y-112634828D01*
X140175245Y-112591657D01*
X140245180Y-112579425D01*
X140310626Y-112606944D01*
X140338475Y-112638794D01*
X140398587Y-112736888D01*
X140544850Y-112905738D01*
X140716726Y-113048432D01*
X140909600Y-113161138D01*
X141118292Y-113240830D01*
X141123360Y-113241861D01*
X141123363Y-113241862D01*
X141173400Y-113252042D01*
X141337197Y-113285367D01*
X141342372Y-113285557D01*
X141342374Y-113285557D01*
X141555273Y-113293364D01*
X141555277Y-113293364D01*
X141560437Y-113293553D01*
X141565557Y-113292897D01*
X141565559Y-113292897D01*
X141776888Y-113265825D01*
X141776889Y-113265825D01*
X141782016Y-113265168D01*
X141843703Y-113246661D01*
X141991029Y-113202461D01*
X141991034Y-113202459D01*
X141995984Y-113200974D01*
X142196594Y-113102696D01*
X142378460Y-112972973D01*
X142413564Y-112937992D01*
X142472724Y-112879038D01*
X142536696Y-112815289D01*
X142594047Y-112735477D01*
X142667053Y-112633877D01*
X142668376Y-112634828D01*
X142715245Y-112591657D01*
X142785180Y-112579425D01*
X142850626Y-112606944D01*
X142878475Y-112638794D01*
X142938587Y-112736888D01*
X143084850Y-112905738D01*
X143256726Y-113048432D01*
X143449600Y-113161138D01*
X143658292Y-113240830D01*
X143663360Y-113241861D01*
X143663363Y-113241862D01*
X143713400Y-113252042D01*
X143877197Y-113285367D01*
X143882372Y-113285557D01*
X143882374Y-113285557D01*
X144095273Y-113293364D01*
X144095277Y-113293364D01*
X144100437Y-113293553D01*
X144105557Y-113292897D01*
X144105559Y-113292897D01*
X144316888Y-113265825D01*
X144316889Y-113265825D01*
X144322016Y-113265168D01*
X144383703Y-113246661D01*
X144531029Y-113202461D01*
X144531034Y-113202459D01*
X144535984Y-113200974D01*
X144736594Y-113102696D01*
X144918460Y-112972973D01*
X144953564Y-112937992D01*
X145012724Y-112879038D01*
X145076696Y-112815289D01*
X145134047Y-112735477D01*
X145207053Y-112633877D01*
X145208376Y-112634828D01*
X145255245Y-112591657D01*
X145325180Y-112579425D01*
X145390626Y-112606944D01*
X145418475Y-112638794D01*
X145478587Y-112736888D01*
X145624850Y-112905738D01*
X145796726Y-113048432D01*
X145989600Y-113161138D01*
X146198292Y-113240830D01*
X146203360Y-113241861D01*
X146203363Y-113241862D01*
X146253400Y-113252042D01*
X146417197Y-113285367D01*
X146422372Y-113285557D01*
X146422374Y-113285557D01*
X146635273Y-113293364D01*
X146635277Y-113293364D01*
X146640437Y-113293553D01*
X146645557Y-113292897D01*
X146645559Y-113292897D01*
X146856888Y-113265825D01*
X146856889Y-113265825D01*
X146862016Y-113265168D01*
X146923703Y-113246661D01*
X147071029Y-113202461D01*
X147071034Y-113202459D01*
X147075984Y-113200974D01*
X147276594Y-113102696D01*
X147458460Y-112972973D01*
X147566691Y-112865119D01*
X147629062Y-112831204D01*
X147699868Y-112836392D01*
X147756630Y-112879038D01*
X147773612Y-112910141D01*
X147784053Y-112937992D01*
X147817985Y-113028505D01*
X147905339Y-113145061D01*
X148021895Y-113232415D01*
X148158284Y-113283545D01*
X148220466Y-113290300D01*
X150016734Y-113290300D01*
X150078916Y-113283545D01*
X150215305Y-113232415D01*
X150331861Y-113145061D01*
X150419215Y-113028505D01*
X150470345Y-112892116D01*
X150477100Y-112829934D01*
X150477100Y-111033666D01*
X150470345Y-110971484D01*
X150419215Y-110835095D01*
X150331861Y-110718539D01*
X150215305Y-110631185D01*
X150206896Y-110628033D01*
X150199025Y-110623723D01*
X150199936Y-110622059D01*
X150152110Y-110586137D01*
X150127407Y-110519576D01*
X150127100Y-110510791D01*
X150127100Y-109466525D01*
X150147102Y-109398404D01*
X150164005Y-109377430D01*
X155498829Y-104042605D01*
X155561141Y-104008579D01*
X155587924Y-104005700D01*
X157005193Y-104005700D01*
X157073314Y-104025702D01*
X157085677Y-104034755D01*
X157180926Y-104113832D01*
X157373800Y-104226538D01*
X157582492Y-104306230D01*
X157587560Y-104307261D01*
X157587563Y-104307262D01*
X157694817Y-104329083D01*
X157801397Y-104350767D01*
X157806572Y-104350957D01*
X157806574Y-104350957D01*
X158019473Y-104358764D01*
X158019477Y-104358764D01*
X158024637Y-104358953D01*
X158029757Y-104358297D01*
X158029759Y-104358297D01*
X158241088Y-104331225D01*
X158241089Y-104331225D01*
X158246216Y-104330568D01*
X158251166Y-104329083D01*
X158455229Y-104267861D01*
X158455234Y-104267859D01*
X158460184Y-104266374D01*
X158660794Y-104168096D01*
X158842660Y-104038373D01*
X158855376Y-104025702D01*
X158997235Y-103884337D01*
X159000896Y-103880689D01*
X159060394Y-103797889D01*
X159128235Y-103703477D01*
X159131253Y-103699277D01*
X159230230Y-103499011D01*
X159295170Y-103285269D01*
X159324329Y-103063790D01*
X159325956Y-102997200D01*
X159307652Y-102774561D01*
X159253231Y-102557902D01*
X159164154Y-102353040D01*
X159042814Y-102165477D01*
X158892470Y-102000251D01*
X158888419Y-101997052D01*
X158888415Y-101997048D01*
X158721214Y-101865000D01*
X158721210Y-101864998D01*
X158717159Y-101861798D01*
X158675853Y-101838996D01*
X158625884Y-101788564D01*
X158611112Y-101719121D01*
X158636228Y-101652716D01*
X158663580Y-101626109D01*
X158721172Y-101585029D01*
X158842660Y-101498373D01*
X158855376Y-101485702D01*
X158997235Y-101344337D01*
X159000896Y-101340689D01*
X159060394Y-101257889D01*
X159128235Y-101163477D01*
X159131253Y-101159277D01*
X159135164Y-101151365D01*
X159227936Y-100963653D01*
X159227937Y-100963651D01*
X159230230Y-100959011D01*
X159273317Y-100817194D01*
X159293665Y-100750223D01*
X159293665Y-100750221D01*
X159295170Y-100745269D01*
X159324329Y-100523790D01*
X159325956Y-100457200D01*
X159307652Y-100234561D01*
X159253231Y-100017902D01*
X159164154Y-99813040D01*
X159093573Y-99703938D01*
X159045622Y-99629817D01*
X159045620Y-99629814D01*
X159042814Y-99625477D01*
X158892470Y-99460251D01*
X158888419Y-99457052D01*
X158888415Y-99457048D01*
X158721214Y-99325000D01*
X158721210Y-99324998D01*
X158717159Y-99321798D01*
X158675853Y-99298996D01*
X158625884Y-99248564D01*
X158611112Y-99179121D01*
X158636228Y-99112716D01*
X158663580Y-99086109D01*
X158707403Y-99054850D01*
X158842660Y-98958373D01*
X158855376Y-98945702D01*
X158997235Y-98804337D01*
X159000896Y-98800689D01*
X159060394Y-98717889D01*
X159128235Y-98623477D01*
X159131253Y-98619277D01*
X159230230Y-98419011D01*
X159295170Y-98205269D01*
X159324329Y-97983790D01*
X159325956Y-97917200D01*
X159307652Y-97694561D01*
X159253231Y-97477902D01*
X159164154Y-97273040D01*
X159042814Y-97085477D01*
X158892470Y-96920251D01*
X158888419Y-96917052D01*
X158888415Y-96917048D01*
X158721214Y-96785000D01*
X158721210Y-96784998D01*
X158717159Y-96781798D01*
X158675853Y-96758996D01*
X158625884Y-96708564D01*
X158611112Y-96639121D01*
X158636228Y-96572716D01*
X158663580Y-96546109D01*
X158707403Y-96514850D01*
X158842660Y-96418373D01*
X158855376Y-96405702D01*
X158997235Y-96264337D01*
X159000896Y-96260689D01*
X159060394Y-96177889D01*
X159128235Y-96083477D01*
X159131253Y-96079277D01*
X159230230Y-95879011D01*
X159295170Y-95665269D01*
X159324329Y-95443790D01*
X159325956Y-95377200D01*
X159307652Y-95154561D01*
X159253231Y-94937902D01*
X159164154Y-94733040D01*
X159042814Y-94545477D01*
X158892470Y-94380251D01*
X158888419Y-94377052D01*
X158888415Y-94377048D01*
X158721214Y-94245000D01*
X158721210Y-94244998D01*
X158717159Y-94241798D01*
X158675853Y-94218996D01*
X158625884Y-94168564D01*
X158611112Y-94099121D01*
X158636228Y-94032716D01*
X158663580Y-94006109D01*
X158707403Y-93974850D01*
X158842660Y-93878373D01*
X158855376Y-93865702D01*
X158997235Y-93724337D01*
X159000896Y-93720689D01*
X159060394Y-93637889D01*
X159128235Y-93543477D01*
X159131253Y-93539277D01*
X159230230Y-93339011D01*
X159295170Y-93125269D01*
X159324329Y-92903790D01*
X159325956Y-92837200D01*
X159307652Y-92614561D01*
X159253231Y-92397902D01*
X159164154Y-92193040D01*
X159093573Y-92083938D01*
X159045622Y-92009817D01*
X159045620Y-92009814D01*
X159042814Y-92005477D01*
X158892470Y-91840251D01*
X158888419Y-91837052D01*
X158888415Y-91837048D01*
X158721214Y-91705000D01*
X158721210Y-91704998D01*
X158717159Y-91701798D01*
X158675853Y-91678996D01*
X158625884Y-91628564D01*
X158611112Y-91559121D01*
X158636228Y-91492716D01*
X158663580Y-91466109D01*
X158707403Y-91434850D01*
X158842660Y-91338373D01*
X159000896Y-91180689D01*
X159060394Y-91097889D01*
X159128235Y-91003477D01*
X159131253Y-90999277D01*
X159230230Y-90799011D01*
X159295170Y-90585269D01*
X159324329Y-90363790D01*
X159325956Y-90297200D01*
X159307652Y-90074561D01*
X159253231Y-89857902D01*
X159164154Y-89653040D01*
X159042814Y-89465477D01*
X158892470Y-89300251D01*
X158888419Y-89297052D01*
X158888415Y-89297048D01*
X158721214Y-89165000D01*
X158721210Y-89164998D01*
X158717159Y-89161798D01*
X158675853Y-89138996D01*
X158625884Y-89088564D01*
X158611112Y-89019121D01*
X158636228Y-88952716D01*
X158663580Y-88926109D01*
X158707403Y-88894850D01*
X158842660Y-88798373D01*
X159000896Y-88640689D01*
X159131253Y-88459277D01*
X159230230Y-88259011D01*
X159295170Y-88045269D01*
X159324329Y-87823790D01*
X159325956Y-87757200D01*
X159307652Y-87534561D01*
X159253231Y-87317902D01*
X159164154Y-87113040D01*
X159042814Y-86925477D01*
X159039332Y-86921650D01*
X158895598Y-86763688D01*
X158864546Y-86699842D01*
X158872941Y-86629343D01*
X158918117Y-86574575D01*
X158944561Y-86560906D01*
X159051097Y-86520967D01*
X159059505Y-86517815D01*
X159176061Y-86430461D01*
X159263415Y-86313905D01*
X159314545Y-86177516D01*
X159321300Y-86115334D01*
X159321300Y-84319066D01*
X159314545Y-84256884D01*
X159263415Y-84120495D01*
X159176061Y-84003939D01*
X159059505Y-83916585D01*
X158923116Y-83865455D01*
X158860934Y-83858700D01*
X157064666Y-83858700D01*
X157002484Y-83865455D01*
X156866095Y-83916585D01*
X156749539Y-84003939D01*
X156662185Y-84120495D01*
X156611055Y-84256884D01*
X156604300Y-84319066D01*
X156604300Y-86115334D01*
X156611055Y-86177516D01*
X156662185Y-86313905D01*
X156749539Y-86430461D01*
X156866095Y-86517815D01*
X156874504Y-86520967D01*
X156874505Y-86520968D01*
X156983251Y-86561735D01*
X157040016Y-86604376D01*
X157064716Y-86670938D01*
X157049509Y-86740287D01*
X157030116Y-86766768D01*
X156903429Y-86899338D01*
X156777543Y-87083880D01*
X156683488Y-87286505D01*
X156674974Y-87317206D01*
X156637495Y-87377503D01*
X156573366Y-87407966D01*
X156502948Y-87398922D01*
X156464462Y-87372628D01*
X146994005Y-77902171D01*
X146959979Y-77839859D01*
X146957100Y-77813076D01*
X146957100Y-45070840D01*
X146957837Y-45057232D01*
X146961259Y-45025736D01*
X146961259Y-45025732D01*
X146961924Y-45019611D01*
X146957550Y-44969609D01*
X146957221Y-44964784D01*
X146957100Y-44962313D01*
X146957100Y-44959231D01*
X146952909Y-44916489D01*
X146952787Y-44915174D01*
X146945223Y-44828719D01*
X146944687Y-44822587D01*
X146943200Y-44817468D01*
X146942680Y-44812167D01*
X146915799Y-44723133D01*
X146915464Y-44722000D01*
X146891227Y-44638578D01*
X146891225Y-44638574D01*
X146889508Y-44632663D01*
X146887057Y-44627934D01*
X146885516Y-44622831D01*
X146841830Y-44540669D01*
X146841283Y-44539627D01*
X146801328Y-44462545D01*
X146801327Y-44462544D01*
X146798492Y-44457074D01*
X146795169Y-44452911D01*
X146792666Y-44448204D01*
X146733863Y-44376105D01*
X146733100Y-44375160D01*
X146701861Y-44336027D01*
X146699370Y-44333536D01*
X146698720Y-44332809D01*
X146695008Y-44328463D01*
X146671555Y-44299708D01*
X146667665Y-44294938D01*
X146662923Y-44291015D01*
X146662921Y-44291013D01*
X146632327Y-44265703D01*
X146623547Y-44257713D01*
X144428605Y-42062771D01*
X144394579Y-42000459D01*
X144391700Y-41973676D01*
X144391700Y-40729126D01*
X144411702Y-40661005D01*
X144428604Y-40640031D01*
X144627629Y-40441005D01*
X144689941Y-40406980D01*
X144716725Y-40404100D01*
X148076556Y-40404100D01*
X148144677Y-40424102D01*
X148165651Y-40441005D01*
X148296051Y-40571405D01*
X148330077Y-40633717D01*
X148325012Y-40704532D01*
X148282465Y-40761368D01*
X148215945Y-40786179D01*
X148206956Y-40786500D01*
X146655666Y-40786500D01*
X146593484Y-40793255D01*
X146457095Y-40844385D01*
X146340539Y-40931739D01*
X146253185Y-41048295D01*
X146202055Y-41184684D01*
X146195300Y-41246866D01*
X146195300Y-43043134D01*
X146202055Y-43105316D01*
X146253185Y-43241705D01*
X146340539Y-43358261D01*
X146457095Y-43445615D01*
X146593484Y-43496745D01*
X146655666Y-43503500D01*
X147586275Y-43503500D01*
X147654396Y-43523502D01*
X147675370Y-43540405D01*
X148687795Y-44552829D01*
X148721820Y-44615141D01*
X148724700Y-44641924D01*
X148724700Y-64251157D01*
X148723963Y-64264764D01*
X148719876Y-64302388D01*
X148720413Y-64308523D01*
X148724250Y-64352388D01*
X148724579Y-64357214D01*
X148724700Y-64359686D01*
X148724700Y-64362769D01*
X148725001Y-64365837D01*
X148728890Y-64405506D01*
X148729012Y-64406819D01*
X148732885Y-64451084D01*
X148737113Y-64499413D01*
X148738600Y-64504532D01*
X148739120Y-64509833D01*
X148765991Y-64598834D01*
X148766326Y-64599967D01*
X148776634Y-64635445D01*
X148792291Y-64689336D01*
X148794744Y-64694068D01*
X148796284Y-64699169D01*
X148799178Y-64704612D01*
X148839931Y-64781260D01*
X148840543Y-64782426D01*
X148883308Y-64864926D01*
X148886631Y-64869089D01*
X148889134Y-64873796D01*
X148947955Y-64945918D01*
X148948646Y-64946774D01*
X148979938Y-64985973D01*
X148982442Y-64988477D01*
X148983084Y-64989195D01*
X148986785Y-64993528D01*
X149014135Y-65027062D01*
X149018882Y-65030989D01*
X149018884Y-65030991D01*
X149049462Y-65056287D01*
X149058242Y-65064277D01*
X155656549Y-71662584D01*
X155665651Y-71672727D01*
X155689368Y-71702225D01*
X155727846Y-71734512D01*
X155731462Y-71737667D01*
X155733288Y-71739323D01*
X155735474Y-71741509D01*
X155737854Y-71743464D01*
X155737864Y-71743473D01*
X155768668Y-71768776D01*
X155769683Y-71769618D01*
X155840874Y-71829354D01*
X155845548Y-71831923D01*
X155849661Y-71835302D01*
X155855098Y-71838217D01*
X155855099Y-71838218D01*
X155931447Y-71879155D01*
X155932577Y-71879768D01*
X156014187Y-71924633D01*
X156019269Y-71926245D01*
X156023963Y-71928762D01*
X156112931Y-71955962D01*
X156113959Y-71956282D01*
X156202706Y-71984435D01*
X156208002Y-71985029D01*
X156213098Y-71986587D01*
X156305657Y-71995990D01*
X156306793Y-71996111D01*
X156340408Y-71999881D01*
X156353130Y-72001308D01*
X156353134Y-72001308D01*
X156356627Y-72001700D01*
X156360154Y-72001700D01*
X156361139Y-72001755D01*
X156366819Y-72002202D01*
X156396225Y-72005189D01*
X156403737Y-72005952D01*
X156403739Y-72005952D01*
X156409862Y-72006574D01*
X156455508Y-72002259D01*
X156467367Y-72001700D01*
X157005193Y-72001700D01*
X157073314Y-72021702D01*
X157085677Y-72030755D01*
X157180926Y-72109832D01*
X157217204Y-72131031D01*
X157254245Y-72152676D01*
X157302969Y-72204314D01*
X157316040Y-72274097D01*
X157289309Y-72339869D01*
X157248855Y-72373227D01*
X157236407Y-72379707D01*
X157232274Y-72382810D01*
X157232271Y-72382812D01*
X157097641Y-72483895D01*
X157057765Y-72513835D01*
X156903429Y-72675338D01*
X156777543Y-72859880D01*
X156683488Y-73062505D01*
X156623789Y-73277770D01*
X156600051Y-73499895D01*
X156600348Y-73505048D01*
X156600348Y-73505051D01*
X156607924Y-73636442D01*
X156612910Y-73722915D01*
X156614047Y-73727961D01*
X156614048Y-73727967D01*
X156633919Y-73816139D01*
X156662022Y-73940839D01*
X156746066Y-74147816D01*
X156862787Y-74338288D01*
X157009050Y-74507138D01*
X157180926Y-74649832D01*
X157251395Y-74691011D01*
X157254245Y-74692676D01*
X157302969Y-74744314D01*
X157316040Y-74814097D01*
X157289309Y-74879869D01*
X157248855Y-74913227D01*
X157236407Y-74919707D01*
X157232274Y-74922810D01*
X157232271Y-74922812D01*
X157097641Y-75023895D01*
X157057765Y-75053835D01*
X156903429Y-75215338D01*
X156777543Y-75399880D01*
X156683488Y-75602505D01*
X156623789Y-75817770D01*
X156600051Y-76039895D01*
X156600348Y-76045048D01*
X156600348Y-76045051D01*
X156607924Y-76176442D01*
X156612910Y-76262915D01*
X156614047Y-76267961D01*
X156614048Y-76267967D01*
X156633401Y-76353838D01*
X156662022Y-76480839D01*
X156746066Y-76687816D01*
X156862787Y-76878288D01*
X157009050Y-77047138D01*
X157180926Y-77189832D01*
X157251395Y-77231011D01*
X157254245Y-77232676D01*
X157302969Y-77284314D01*
X157316040Y-77354097D01*
X157289309Y-77419869D01*
X157248855Y-77453227D01*
X157236407Y-77459707D01*
X157232274Y-77462810D01*
X157232271Y-77462812D01*
X157097641Y-77563895D01*
X157057765Y-77593835D01*
X156903429Y-77755338D01*
X156777543Y-77939880D01*
X156683488Y-78142505D01*
X156623789Y-78357770D01*
X156600051Y-78579895D01*
X156600348Y-78585048D01*
X156600348Y-78585051D01*
X156607924Y-78716442D01*
X156612910Y-78802915D01*
X156614047Y-78807961D01*
X156614048Y-78807967D01*
X156627211Y-78866374D01*
X156662022Y-79020839D01*
X156746066Y-79227816D01*
X156862787Y-79418288D01*
X157009050Y-79587138D01*
X157180926Y-79729832D01*
X157251395Y-79771011D01*
X157254245Y-79772676D01*
X157302969Y-79824314D01*
X157316040Y-79894097D01*
X157289309Y-79959869D01*
X157248855Y-79993227D01*
X157236407Y-79999707D01*
X157232274Y-80002810D01*
X157232271Y-80002812D01*
X157208047Y-80021000D01*
X157057765Y-80133835D01*
X156903429Y-80295338D01*
X156900515Y-80299610D01*
X156900514Y-80299611D01*
X156835459Y-80394978D01*
X156777543Y-80479880D01*
X156761803Y-80513790D01*
X156706063Y-80633872D01*
X156683488Y-80682505D01*
X156623789Y-80897770D01*
X156600051Y-81119895D01*
X156600348Y-81125048D01*
X156600348Y-81125051D01*
X156605811Y-81219790D01*
X156612910Y-81342915D01*
X156614047Y-81347961D01*
X156614048Y-81347967D01*
X156625589Y-81399176D01*
X156662022Y-81560839D01*
X156746066Y-81767816D01*
X156862787Y-81958288D01*
X157009050Y-82127138D01*
X157180926Y-82269832D01*
X157373800Y-82382538D01*
X157378625Y-82384380D01*
X157378626Y-82384381D01*
X157444804Y-82409652D01*
X157582492Y-82462230D01*
X157587560Y-82463261D01*
X157587563Y-82463262D01*
X157694817Y-82485083D01*
X157801397Y-82506767D01*
X157806572Y-82506957D01*
X157806574Y-82506957D01*
X158019473Y-82514764D01*
X158019477Y-82514764D01*
X158024637Y-82514953D01*
X158029757Y-82514297D01*
X158029759Y-82514297D01*
X158241088Y-82487225D01*
X158241089Y-82487225D01*
X158246216Y-82486568D01*
X158251166Y-82485083D01*
X158455229Y-82423861D01*
X158455234Y-82423859D01*
X158460184Y-82422374D01*
X158660794Y-82324096D01*
X158842660Y-82194373D01*
X159000896Y-82036689D01*
X159060394Y-81953889D01*
X159128235Y-81859477D01*
X159131253Y-81855277D01*
X159215686Y-81684440D01*
X159227936Y-81659653D01*
X159227937Y-81659651D01*
X159230230Y-81655011D01*
X159272084Y-81517253D01*
X159293665Y-81446223D01*
X159293665Y-81446221D01*
X159295170Y-81441269D01*
X159324329Y-81219790D01*
X159325956Y-81153200D01*
X159307652Y-80930561D01*
X159253231Y-80713902D01*
X159164154Y-80509040D01*
X159096955Y-80405166D01*
X159045622Y-80325817D01*
X159045620Y-80325814D01*
X159042814Y-80321477D01*
X158892470Y-80156251D01*
X158888419Y-80153052D01*
X158888415Y-80153048D01*
X158721214Y-80021000D01*
X158721210Y-80020998D01*
X158717159Y-80017798D01*
X158675853Y-79994996D01*
X158625884Y-79944564D01*
X158611112Y-79875121D01*
X158636228Y-79808716D01*
X158663580Y-79782109D01*
X158707403Y-79750850D01*
X158842660Y-79654373D01*
X159000896Y-79496689D01*
X159060394Y-79413889D01*
X159128235Y-79319477D01*
X159131253Y-79315277D01*
X159215686Y-79144440D01*
X159227936Y-79119653D01*
X159227937Y-79119651D01*
X159230230Y-79115011D01*
X159295170Y-78901269D01*
X159324329Y-78679790D01*
X159324860Y-78658060D01*
X159325874Y-78616565D01*
X159325874Y-78616561D01*
X159325956Y-78613200D01*
X159307652Y-78390561D01*
X159253231Y-78173902D01*
X159164154Y-77969040D01*
X159124706Y-77908062D01*
X159045622Y-77785817D01*
X159045620Y-77785814D01*
X159042814Y-77781477D01*
X158892470Y-77616251D01*
X158888419Y-77613052D01*
X158888415Y-77613048D01*
X158721214Y-77481000D01*
X158721210Y-77480998D01*
X158717159Y-77477798D01*
X158675853Y-77454996D01*
X158625884Y-77404564D01*
X158611112Y-77335121D01*
X158636228Y-77268716D01*
X158663580Y-77242109D01*
X158707403Y-77210850D01*
X158842660Y-77114373D01*
X159000896Y-76956689D01*
X159006643Y-76948692D01*
X159128235Y-76779477D01*
X159131253Y-76775277D01*
X159133952Y-76769817D01*
X159227936Y-76579653D01*
X159227937Y-76579651D01*
X159230230Y-76575011D01*
X159295170Y-76361269D01*
X159324329Y-76139790D01*
X159325956Y-76073200D01*
X159307652Y-75850561D01*
X159253231Y-75633902D01*
X159164154Y-75429040D01*
X159106641Y-75340139D01*
X159045622Y-75245817D01*
X159045620Y-75245814D01*
X159042814Y-75241477D01*
X158892470Y-75076251D01*
X158888419Y-75073052D01*
X158888415Y-75073048D01*
X158721214Y-74941000D01*
X158721210Y-74940998D01*
X158717159Y-74937798D01*
X158675853Y-74914996D01*
X158625884Y-74864564D01*
X158611112Y-74795121D01*
X158636228Y-74728716D01*
X158663580Y-74702109D01*
X158707403Y-74670850D01*
X158842660Y-74574373D01*
X159000896Y-74416689D01*
X159060394Y-74333889D01*
X159128235Y-74239477D01*
X159131253Y-74235277D01*
X159230230Y-74035011D01*
X159295170Y-73821269D01*
X159324329Y-73599790D01*
X159325956Y-73533200D01*
X159307652Y-73310561D01*
X159253231Y-73093902D01*
X159164154Y-72889040D01*
X159124706Y-72828062D01*
X159045622Y-72705817D01*
X159045620Y-72705814D01*
X159042814Y-72701477D01*
X158892470Y-72536251D01*
X158888419Y-72533052D01*
X158888415Y-72533048D01*
X158721214Y-72401000D01*
X158721210Y-72400998D01*
X158717159Y-72397798D01*
X158675853Y-72374996D01*
X158625884Y-72324564D01*
X158611112Y-72255121D01*
X158636228Y-72188716D01*
X158663580Y-72162109D01*
X158726197Y-72117445D01*
X158842660Y-72034373D01*
X158855376Y-72021702D01*
X158951019Y-71926392D01*
X159000896Y-71876689D01*
X159006643Y-71868692D01*
X159128235Y-71699477D01*
X159131253Y-71695277D01*
X159133952Y-71689817D01*
X159227936Y-71499653D01*
X159227937Y-71499651D01*
X159230230Y-71495011D01*
X159295170Y-71281269D01*
X159324329Y-71059790D01*
X159325956Y-70993200D01*
X159307652Y-70770561D01*
X159253231Y-70553902D01*
X159164154Y-70349040D01*
X159106641Y-70260139D01*
X159045622Y-70165817D01*
X159045620Y-70165814D01*
X159042814Y-70161477D01*
X158892470Y-69996251D01*
X158888419Y-69993052D01*
X158888415Y-69993048D01*
X158721214Y-69861000D01*
X158721210Y-69860998D01*
X158717159Y-69857798D01*
X158675853Y-69834996D01*
X158625884Y-69784564D01*
X158611112Y-69715121D01*
X158636228Y-69648716D01*
X158663580Y-69622109D01*
X158707403Y-69590850D01*
X158842660Y-69494373D01*
X159000896Y-69336689D01*
X159006643Y-69328692D01*
X159128235Y-69159477D01*
X159131253Y-69155277D01*
X159133786Y-69150153D01*
X159227936Y-68959653D01*
X159227937Y-68959651D01*
X159230230Y-68955011D01*
X159281597Y-68785944D01*
X159293665Y-68746223D01*
X159293665Y-68746221D01*
X159295170Y-68741269D01*
X159324329Y-68519790D01*
X159325956Y-68453200D01*
X159307652Y-68230561D01*
X159253231Y-68013902D01*
X159164154Y-67809040D01*
X159042814Y-67621477D01*
X158892470Y-67456251D01*
X158888419Y-67453052D01*
X158888415Y-67453048D01*
X158721214Y-67321000D01*
X158721210Y-67320998D01*
X158717159Y-67317798D01*
X158675369Y-67294729D01*
X158625398Y-67244297D01*
X158610626Y-67174854D01*
X158635742Y-67108448D01*
X158663094Y-67081841D01*
X158838128Y-66956992D01*
X158846000Y-66950339D01*
X158996852Y-66800012D01*
X159003530Y-66792165D01*
X159127803Y-66619220D01*
X159133113Y-66610383D01*
X159227470Y-66419467D01*
X159231269Y-66409872D01*
X159293177Y-66206110D01*
X159295355Y-66196037D01*
X159296786Y-66185162D01*
X159294575Y-66170978D01*
X159281417Y-66167200D01*
X157834800Y-66167200D01*
X157766679Y-66147198D01*
X157720186Y-66093542D01*
X157708800Y-66041200D01*
X157708800Y-65785200D01*
X157728802Y-65717079D01*
X157782458Y-65670586D01*
X157834800Y-65659200D01*
X159281144Y-65659200D01*
X159294675Y-65655227D01*
X159295980Y-65646147D01*
X159254014Y-65479075D01*
X159250694Y-65469324D01*
X159165772Y-65274014D01*
X159160905Y-65264939D01*
X159045226Y-65086126D01*
X159038936Y-65077957D01*
X158895606Y-64920440D01*
X158888073Y-64913415D01*
X158720939Y-64781422D01*
X158712356Y-64775720D01*
X158675402Y-64755320D01*
X158625431Y-64704887D01*
X158610659Y-64635445D01*
X158635775Y-64569039D01*
X158663127Y-64542432D01*
X158723418Y-64499427D01*
X158842660Y-64414373D01*
X158850241Y-64406819D01*
X158924009Y-64333307D01*
X159000896Y-64256689D01*
X159060394Y-64173889D01*
X159128235Y-64079477D01*
X159131253Y-64075277D01*
X159220220Y-63895266D01*
X159227936Y-63879653D01*
X159227937Y-63879651D01*
X159230230Y-63875011D01*
X159270781Y-63741542D01*
X159293665Y-63666223D01*
X159293665Y-63666221D01*
X159295170Y-63661269D01*
X159324329Y-63439790D01*
X159325956Y-63373200D01*
X159307652Y-63150561D01*
X159253231Y-62933902D01*
X159164154Y-62729040D01*
X159042814Y-62541477D01*
X158892470Y-62376251D01*
X158888419Y-62373052D01*
X158888415Y-62373048D01*
X158721214Y-62241000D01*
X158721210Y-62240998D01*
X158717159Y-62237798D01*
X158675853Y-62214996D01*
X158625884Y-62164564D01*
X158611112Y-62095121D01*
X158636228Y-62028716D01*
X158663580Y-62002109D01*
X158707403Y-61970850D01*
X158842660Y-61874373D01*
X159000896Y-61716689D01*
X159060394Y-61633889D01*
X159128235Y-61539477D01*
X159131253Y-61535277D01*
X159230230Y-61335011D01*
X159295170Y-61121269D01*
X159324329Y-60899790D01*
X159325956Y-60833200D01*
X159307652Y-60610561D01*
X159253231Y-60393902D01*
X159164154Y-60189040D01*
X159042814Y-60001477D01*
X159039332Y-59997650D01*
X158895598Y-59839688D01*
X158864546Y-59775842D01*
X158872941Y-59705343D01*
X158918117Y-59650575D01*
X158944561Y-59636906D01*
X159051097Y-59596967D01*
X159059505Y-59593815D01*
X159176061Y-59506461D01*
X159263415Y-59389905D01*
X159314545Y-59253516D01*
X159321300Y-59191334D01*
X159321300Y-57395066D01*
X159314545Y-57332884D01*
X159263415Y-57196495D01*
X159176061Y-57079939D01*
X159059505Y-56992585D01*
X158923116Y-56941455D01*
X158860934Y-56934700D01*
X157064666Y-56934700D01*
X157002484Y-56941455D01*
X156866095Y-56992585D01*
X156749539Y-57079939D01*
X156662185Y-57196495D01*
X156611055Y-57332884D01*
X156604300Y-57395066D01*
X156604300Y-59191334D01*
X156611055Y-59253516D01*
X156662185Y-59389905D01*
X156749539Y-59506461D01*
X156866095Y-59593815D01*
X156874504Y-59596967D01*
X156874505Y-59596968D01*
X156983251Y-59637735D01*
X157040016Y-59680376D01*
X157064716Y-59746938D01*
X157049509Y-59816287D01*
X157030116Y-59842768D01*
X156903429Y-59975338D01*
X156777543Y-60159880D01*
X156683488Y-60362505D01*
X156623789Y-60577770D01*
X156600051Y-60799895D01*
X156600348Y-60805048D01*
X156600348Y-60805051D01*
X156605811Y-60899790D01*
X156612910Y-61022915D01*
X156614047Y-61027961D01*
X156614048Y-61027967D01*
X156633919Y-61116139D01*
X156662022Y-61240839D01*
X156746066Y-61447816D01*
X156862787Y-61638288D01*
X157009050Y-61807138D01*
X157180926Y-61949832D01*
X157251395Y-61991011D01*
X157254245Y-61992676D01*
X157302969Y-62044314D01*
X157316040Y-62114097D01*
X157289309Y-62179869D01*
X157248855Y-62213227D01*
X157236407Y-62219707D01*
X157232274Y-62222810D01*
X157232271Y-62222812D01*
X157208047Y-62241000D01*
X157057765Y-62353835D01*
X156903429Y-62515338D01*
X156777543Y-62699880D01*
X156683488Y-62902505D01*
X156623789Y-63117770D01*
X156600051Y-63339895D01*
X156600348Y-63345048D01*
X156600348Y-63345051D01*
X156606002Y-63443108D01*
X156612910Y-63562915D01*
X156614047Y-63567961D01*
X156614048Y-63567967D01*
X156633919Y-63656139D01*
X156662022Y-63780839D01*
X156746066Y-63987816D01*
X156862787Y-64178288D01*
X157009050Y-64347138D01*
X157180926Y-64489832D01*
X157215154Y-64509833D01*
X157254755Y-64532974D01*
X157303479Y-64584612D01*
X157316550Y-64654395D01*
X157289819Y-64720167D01*
X157249362Y-64753527D01*
X157241257Y-64757746D01*
X157232538Y-64763236D01*
X157062233Y-64891105D01*
X157054526Y-64897948D01*
X156907390Y-65051917D01*
X156900904Y-65059927D01*
X156780898Y-65235849D01*
X156775800Y-65244823D01*
X156686138Y-65437983D01*
X156682577Y-65447665D01*
X156675380Y-65473613D01*
X156637900Y-65533910D01*
X156573771Y-65564372D01*
X156503352Y-65555328D01*
X156464870Y-65529035D01*
X153679205Y-62743371D01*
X153645179Y-62681059D01*
X153642300Y-62654276D01*
X153642300Y-43108970D01*
X153662302Y-43040849D01*
X153670260Y-43030120D01*
X153671896Y-43028489D01*
X153802253Y-42847077D01*
X153803576Y-42848028D01*
X153850445Y-42804857D01*
X153920380Y-42792625D01*
X153985826Y-42820144D01*
X154013675Y-42851994D01*
X154073787Y-42950088D01*
X154220050Y-43118938D01*
X154391926Y-43261632D01*
X154584800Y-43374338D01*
X154793492Y-43454030D01*
X154798560Y-43455061D01*
X154798563Y-43455062D01*
X154893662Y-43474410D01*
X155012397Y-43498567D01*
X155017572Y-43498757D01*
X155017574Y-43498757D01*
X155230473Y-43506564D01*
X155230477Y-43506564D01*
X155235637Y-43506753D01*
X155240757Y-43506097D01*
X155240759Y-43506097D01*
X155452088Y-43479025D01*
X155452089Y-43479025D01*
X155457216Y-43478368D01*
X155462166Y-43476883D01*
X155666229Y-43415661D01*
X155666234Y-43415659D01*
X155671184Y-43414174D01*
X155871794Y-43315896D01*
X156053660Y-43186173D01*
X156211896Y-43028489D01*
X156229209Y-43004396D01*
X156342253Y-42847077D01*
X156343440Y-42847930D01*
X156390760Y-42804362D01*
X156460697Y-42792145D01*
X156526138Y-42819678D01*
X156553966Y-42851511D01*
X156611494Y-42945388D01*
X156617577Y-42953699D01*
X156757013Y-43114667D01*
X156764380Y-43121883D01*
X156928234Y-43257916D01*
X156936681Y-43263831D01*
X157120556Y-43371279D01*
X157129842Y-43375729D01*
X157328801Y-43451703D01*
X157338699Y-43454579D01*
X157442050Y-43475606D01*
X157456099Y-43474410D01*
X157459800Y-43464065D01*
X157459800Y-43463517D01*
X157967800Y-43463517D01*
X157971864Y-43477359D01*
X157985278Y-43479393D01*
X157991984Y-43478534D01*
X158002062Y-43476392D01*
X158206055Y-43415191D01*
X158215642Y-43411433D01*
X158406895Y-43317739D01*
X158415745Y-43312464D01*
X158589128Y-43188792D01*
X158597000Y-43182139D01*
X158747852Y-43031812D01*
X158754530Y-43023965D01*
X158878803Y-42851020D01*
X158884113Y-42842183D01*
X158978470Y-42651267D01*
X158982269Y-42641672D01*
X159044177Y-42437910D01*
X159046355Y-42427837D01*
X159047786Y-42416962D01*
X159045575Y-42402778D01*
X159032417Y-42399000D01*
X157985915Y-42399000D01*
X157970676Y-42403475D01*
X157969471Y-42404865D01*
X157967800Y-42412548D01*
X157967800Y-43463517D01*
X157459800Y-43463517D01*
X157459800Y-41872885D01*
X157967800Y-41872885D01*
X157972275Y-41888124D01*
X157973665Y-41889329D01*
X157981348Y-41891000D01*
X159032144Y-41891000D01*
X159045675Y-41887027D01*
X159046980Y-41877947D01*
X159005014Y-41710875D01*
X159001694Y-41701124D01*
X158916772Y-41505814D01*
X158911905Y-41496739D01*
X158796226Y-41317926D01*
X158789936Y-41309757D01*
X158646606Y-41152240D01*
X158639073Y-41145215D01*
X158471939Y-41013222D01*
X158463352Y-41007517D01*
X158276917Y-40904599D01*
X158267505Y-40900369D01*
X158066759Y-40829280D01*
X158056788Y-40826646D01*
X157985637Y-40813972D01*
X157972340Y-40815432D01*
X157967800Y-40829989D01*
X157967800Y-41872885D01*
X157459800Y-41872885D01*
X157459800Y-40828102D01*
X157455882Y-40814758D01*
X157441606Y-40812771D01*
X157403124Y-40818660D01*
X157393088Y-40821051D01*
X157190668Y-40887212D01*
X157181159Y-40891209D01*
X156992263Y-40989542D01*
X156983538Y-40995036D01*
X156813233Y-41122905D01*
X156805526Y-41129748D01*
X156658390Y-41283717D01*
X156651909Y-41291722D01*
X156547298Y-41445074D01*
X156492387Y-41490076D01*
X156421862Y-41498247D01*
X156358115Y-41466993D01*
X156337418Y-41442509D01*
X156256622Y-41317617D01*
X156256620Y-41317614D01*
X156253814Y-41313277D01*
X156103470Y-41148051D01*
X156099419Y-41144852D01*
X156099415Y-41144848D01*
X155932214Y-41012800D01*
X155932210Y-41012798D01*
X155928159Y-41009598D01*
X155919412Y-41004769D01*
X155815465Y-40947388D01*
X155732589Y-40901638D01*
X155727720Y-40899914D01*
X155727716Y-40899912D01*
X155526887Y-40828795D01*
X155526883Y-40828794D01*
X155522012Y-40827069D01*
X155516919Y-40826162D01*
X155516916Y-40826161D01*
X155441743Y-40812771D01*
X155302084Y-40787894D01*
X155293484Y-40787789D01*
X155292151Y-40787380D01*
X155291761Y-40787343D01*
X155291769Y-40787262D01*
X155225613Y-40766957D01*
X155205927Y-40750893D01*
X151403255Y-36948221D01*
X151394153Y-36938078D01*
X151374297Y-36913382D01*
X151370432Y-36908575D01*
X151331978Y-36876308D01*
X151328331Y-36873128D01*
X151326519Y-36871485D01*
X151324325Y-36869291D01*
X151291051Y-36841958D01*
X151290253Y-36841296D01*
X151218926Y-36781446D01*
X151214256Y-36778878D01*
X151210139Y-36775497D01*
X151128314Y-36731623D01*
X151127155Y-36730994D01*
X151051019Y-36689138D01*
X151051011Y-36689135D01*
X151045613Y-36686167D01*
X151040531Y-36684555D01*
X151035837Y-36682038D01*
X150946869Y-36654838D01*
X150945841Y-36654518D01*
X150857094Y-36626365D01*
X150851798Y-36625771D01*
X150846702Y-36624213D01*
X150754143Y-36614810D01*
X150753007Y-36614689D01*
X150719392Y-36610919D01*
X150706670Y-36609492D01*
X150706666Y-36609492D01*
X150703173Y-36609100D01*
X150699646Y-36609100D01*
X150698661Y-36609045D01*
X150692981Y-36608598D01*
X150663575Y-36605611D01*
X150656063Y-36604848D01*
X150656061Y-36604848D01*
X150649938Y-36604226D01*
X150607659Y-36608223D01*
X150604291Y-36608541D01*
X150592433Y-36609100D01*
X138111043Y-36609100D01*
X138097436Y-36608363D01*
X138065938Y-36604941D01*
X138065933Y-36604941D01*
X138059812Y-36604276D01*
X138033562Y-36606573D01*
X138009812Y-36608650D01*
X138004986Y-36608979D01*
X138002514Y-36609100D01*
X137999431Y-36609100D01*
X137987462Y-36610274D01*
X137956694Y-36613290D01*
X137955381Y-36613412D01*
X137911116Y-36617285D01*
X137862787Y-36621513D01*
X137857668Y-36623000D01*
X137852367Y-36623520D01*
X137763366Y-36650391D01*
X137762233Y-36650726D01*
X137678786Y-36674970D01*
X137678782Y-36674972D01*
X137672864Y-36676691D01*
X137668132Y-36679144D01*
X137663031Y-36680684D01*
X137657588Y-36683578D01*
X137580940Y-36724331D01*
X137579774Y-36724943D01*
X137502747Y-36764871D01*
X137497274Y-36767708D01*
X137493111Y-36771031D01*
X137488404Y-36773534D01*
X137416282Y-36832355D01*
X137415426Y-36833046D01*
X137376227Y-36864338D01*
X137373723Y-36866842D01*
X137373005Y-36867484D01*
X137368672Y-36871185D01*
X137335138Y-36898535D01*
X137331211Y-36903282D01*
X137331209Y-36903284D01*
X137305913Y-36933862D01*
X137297923Y-36942642D01*
X115688221Y-58552345D01*
X115678078Y-58561447D01*
X115648575Y-58585168D01*
X115644608Y-58589896D01*
X115616309Y-58623621D01*
X115613128Y-58627269D01*
X115611485Y-58629081D01*
X115609291Y-58631275D01*
X115581958Y-58664549D01*
X115581296Y-58665347D01*
X115521446Y-58736674D01*
X115518878Y-58741344D01*
X115515497Y-58745461D01*
X115484460Y-58803345D01*
X115471623Y-58827286D01*
X115470994Y-58828445D01*
X115429138Y-58904581D01*
X115429135Y-58904589D01*
X115426167Y-58909987D01*
X115424555Y-58915069D01*
X115422038Y-58919763D01*
X115394838Y-59008731D01*
X115394518Y-59009759D01*
X115366365Y-59098506D01*
X115365771Y-59103802D01*
X115364213Y-59108898D01*
X115363590Y-59115034D01*
X115354818Y-59201387D01*
X115354689Y-59202593D01*
X115349100Y-59252427D01*
X115349100Y-59255954D01*
X115349045Y-59256939D01*
X115348598Y-59262619D01*
X115344226Y-59305662D01*
X115344806Y-59311793D01*
X115348541Y-59351309D01*
X115349100Y-59363167D01*
X115349100Y-67932476D01*
X115329098Y-68000597D01*
X115312195Y-68021571D01*
X111202735Y-72131031D01*
X111140423Y-72165057D01*
X111069608Y-72159992D01*
X111012772Y-72117445D01*
X110994427Y-72082665D01*
X110993231Y-72077902D01*
X110904154Y-71873040D01*
X110782814Y-71685477D01*
X110632470Y-71520251D01*
X110628419Y-71517052D01*
X110628415Y-71517048D01*
X110461214Y-71385000D01*
X110461210Y-71384998D01*
X110457159Y-71381798D01*
X110415853Y-71358996D01*
X110365884Y-71308564D01*
X110351112Y-71239121D01*
X110376228Y-71172716D01*
X110403580Y-71146109D01*
X110447403Y-71114850D01*
X110582660Y-71018373D01*
X110604545Y-70996565D01*
X110737235Y-70864337D01*
X110740896Y-70860689D01*
X110800394Y-70777889D01*
X110868235Y-70683477D01*
X110871253Y-70679277D01*
X110935564Y-70549154D01*
X110967936Y-70483653D01*
X110967937Y-70483651D01*
X110970230Y-70479011D01*
X111035170Y-70265269D01*
X111064329Y-70043790D01*
X111065956Y-69977200D01*
X111047652Y-69754561D01*
X110993231Y-69537902D01*
X110904154Y-69333040D01*
X110791871Y-69159477D01*
X110785622Y-69149817D01*
X110785620Y-69149814D01*
X110782814Y-69145477D01*
X110779332Y-69141650D01*
X110635598Y-68983688D01*
X110604546Y-68919842D01*
X110612941Y-68849343D01*
X110658117Y-68794575D01*
X110684561Y-68780906D01*
X110791097Y-68740967D01*
X110799505Y-68737815D01*
X110916061Y-68650461D01*
X111003415Y-68533905D01*
X111054545Y-68397516D01*
X111061300Y-68335334D01*
X111061300Y-66539066D01*
X111054545Y-66476884D01*
X111003415Y-66340495D01*
X110916061Y-66223939D01*
X110799505Y-66136585D01*
X110663116Y-66085455D01*
X110600934Y-66078700D01*
X108804666Y-66078700D01*
X108742484Y-66085455D01*
X108606095Y-66136585D01*
X108489539Y-66223939D01*
X108402185Y-66340495D01*
X108351055Y-66476884D01*
X108344300Y-66539066D01*
X108344300Y-68335334D01*
X108351055Y-68397516D01*
X108402185Y-68533905D01*
X108489539Y-68650461D01*
X108606095Y-68737815D01*
X108614504Y-68740967D01*
X108614505Y-68740968D01*
X108723251Y-68781735D01*
X108780016Y-68824376D01*
X108804716Y-68890938D01*
X108789509Y-68960287D01*
X108770116Y-68986768D01*
X108643429Y-69119338D01*
X108640515Y-69123610D01*
X108640514Y-69123611D01*
X108619495Y-69154424D01*
X108517543Y-69303880D01*
X108423488Y-69506505D01*
X108363789Y-69721770D01*
X108340051Y-69943895D01*
X108340348Y-69949048D01*
X108340348Y-69949051D01*
X108345811Y-70043790D01*
X108352910Y-70166915D01*
X108354047Y-70171961D01*
X108354048Y-70171967D01*
X108373919Y-70260139D01*
X108402022Y-70384839D01*
X108486066Y-70591816D01*
X108488765Y-70596220D01*
X108595601Y-70770561D01*
X108602787Y-70782288D01*
X108749050Y-70951138D01*
X108920926Y-71093832D01*
X108991395Y-71135011D01*
X108994245Y-71136676D01*
X109042969Y-71188314D01*
X109056040Y-71258097D01*
X109029309Y-71323869D01*
X108988855Y-71357227D01*
X108976407Y-71363707D01*
X108972274Y-71366810D01*
X108972271Y-71366812D01*
X108948047Y-71385000D01*
X108797765Y-71497835D01*
X108643429Y-71659338D01*
X108640515Y-71663610D01*
X108640514Y-71663611D01*
X108616048Y-71699477D01*
X108517543Y-71843880D01*
X108481437Y-71921664D01*
X108442293Y-72005994D01*
X108423488Y-72046505D01*
X108363789Y-72261770D01*
X108340051Y-72483895D01*
X108352910Y-72706915D01*
X108354047Y-72711961D01*
X108354048Y-72711967D01*
X108378104Y-72818708D01*
X108402022Y-72924839D01*
X108486066Y-73131816D01*
X108488765Y-73136220D01*
X108595601Y-73310561D01*
X108602787Y-73322288D01*
X108749050Y-73491138D01*
X108920926Y-73633832D01*
X108991395Y-73675011D01*
X108994245Y-73676676D01*
X109042969Y-73728314D01*
X109056040Y-73798097D01*
X109029309Y-73863869D01*
X108988855Y-73897227D01*
X108976407Y-73903707D01*
X108972274Y-73906810D01*
X108972271Y-73906812D01*
X108920577Y-73945625D01*
X108797765Y-74037835D01*
X108643429Y-74199338D01*
X108640515Y-74203610D01*
X108640514Y-74203611D01*
X108618913Y-74235277D01*
X108517543Y-74383880D01*
X108423488Y-74586505D01*
X108363789Y-74801770D01*
X108340051Y-75023895D01*
X108352910Y-75246915D01*
X108354047Y-75251961D01*
X108354048Y-75251967D01*
X108373919Y-75340139D01*
X108402022Y-75464839D01*
X108486066Y-75671816D01*
X108488765Y-75676220D01*
X108595601Y-75850561D01*
X108602787Y-75862288D01*
X108749050Y-76031138D01*
X108920926Y-76173832D01*
X108991395Y-76215011D01*
X108994245Y-76216676D01*
X109042969Y-76268314D01*
X109056040Y-76338097D01*
X109029309Y-76403869D01*
X108988855Y-76437227D01*
X108976407Y-76443707D01*
X108972274Y-76446810D01*
X108972271Y-76446812D01*
X108920577Y-76485625D01*
X108797765Y-76577835D01*
X108643429Y-76739338D01*
X108640515Y-76743610D01*
X108640514Y-76743611D01*
X108618913Y-76775277D01*
X108517543Y-76923880D01*
X108423488Y-77126505D01*
X108363789Y-77341770D01*
X108340051Y-77563895D01*
X107163300Y-77563895D01*
X107163300Y-36423300D01*
X107183302Y-36355179D01*
X107236958Y-36308686D01*
X107289300Y-36297300D01*
X161087500Y-36297300D01*
X161155621Y-36317302D01*
G37*
%TD.AperFunction*%
%TD*%
M02*
