M48
; DRILL file {KiCad (6.0.7)} date Mon Sep 18 08:45:09 2023
; FORMAT={-:-/ absolute / inch / decimal}
; #@! TF.CreationDate,2023-09-18T08:45:09-03:00
; #@! TF.GenerationSoftware,Kicad,Pcbnew,(6.0.7)
; #@! TF.FileFunction,Plated,1,2,PTH
FMAT,2
INCH
; #@! TA.AperFunction,Plated,PTH,ComponentDrill
T1C0.0394
%
G90
G05
T1
X4.319Y-2.655
X4.319Y-2.755
X4.319Y-2.855
X4.319Y-2.955
X4.319Y-3.055
X4.319Y-3.155
X4.319Y-3.255
X4.319Y-3.355
X4.319Y-3.555
X4.319Y-3.655
X4.319Y-3.755
X4.319Y-3.855
X4.319Y-3.955
X4.319Y-4.055
X4.5484Y-4.4108
X4.6484Y-4.4108
X4.7484Y-4.4108
X5.4708Y-4.4068
X5.5708Y-4.4068
X5.6708Y-4.4068
X5.7708Y-4.4068
X5.8092Y-1.6593
X5.8708Y-4.4068
X5.9092Y-1.6593
X6.0092Y-1.6593
X6.1092Y-1.6593
X6.2092Y-1.6593
X6.219Y-2.295
X6.219Y-2.395
X6.219Y-2.495
X6.219Y-2.595
X6.219Y-2.695
X6.219Y-2.795
X6.219Y-2.895
X6.219Y-2.995
X6.219Y-3.095
X6.219Y-3.195
X6.219Y-3.355
X6.219Y-3.455
X6.219Y-3.555
X6.219Y-3.655
X6.219Y-3.755
X6.219Y-3.855
X6.219Y-3.955
X6.219Y-4.055
T0
M30
